<svg width="1080" height="1080" viewBox="0 0 1080 1080" fill="none" xmlns="http://www.w3.org/2000/svg">
<rect x="15" y="15" width="1050" height="1050" rx="85" fill="url(#paint0_linear_687_71)" stroke="url(#paint1_linear_687_71)" stroke-width="30"/>
<g filter="url(#filter0_i_687_71)">
<path d="M630 579C636 549 651 528 675 504C705 477 720 438 720 399C720 351.261 701.036 305.477 667.279 271.721C633.523 237.964 587.739 219 540 219C492.261 219 446.477 237.964 412.721 271.721C378.964 305.477 360 351.261 360 399C360 429 366 465 405 504C426 525 444 549 450 579M450 661L540 700.5L630 661M480 781L540 861L600 781" stroke="url(#paint2_linear_687_71)" stroke-width="70" stroke-linecap="round" stroke-linejoin="round"/>
</g>
<defs>
<filter id="filter0_i_687_71" x="325" y="184" width="430" height="712" filterUnits="userSpaceOnUse" color-interpolation-filters="sRGB">
<feFlood flood-opacity="0" result="BackgroundImageFix"/>
<feBlend mode="normal" in="SourceGraphic" in2="BackgroundImageFix" result="shape"/>
<feColorMatrix in="SourceAlpha" type="matrix" values="0 0 0 0 0 0 0 0 0 0 0 0 0 0 0 0 0 0 127 0" result="hardAlpha"/>
<feOffset/>
<feGaussianBlur stdDeviation="4.5"/>
<feComposite in2="hardAlpha" operator="arithmetic" k2="-1" k3="1"/>
<feColorMatrix type="matrix" values="0 0 0 0 1 0 0 0 0 1 0 0 0 0 1 0 0 0 0.6 0"/>
<feBlend mode="normal" in2="shape" result="effect1_innerShadow_687_71"/>
</filter>
<linearGradient id="paint0_linear_687_71" x1="540" y1="0" x2="540" y2="1080" gradientUnits="userSpaceOnUse">
<stop stop-color="#0F0F0F"/>
<stop offset="1"/>
</linearGradient>
<linearGradient id="paint1_linear_687_71" x1="540" y1="0" x2="540" y2="1080" gradientUnits="userSpaceOnUse">
<stop stop-color="white"/>
<stop offset="1" stop-color="#7B7B7B"/>
</linearGradient>
<linearGradient id="paint2_linear_687_71" x1="540" y1="181" x2="540" y2="781" gradientUnits="userSpaceOnUse">
<stop stop-color="white"/>
<stop offset="1" stop-color="#7B7B7B"/>
</linearGradient>
</defs>
</svg>
